<?xml version="1.0" encoding="UTF-8"?>
<svg width="1214px" height="866px" viewBox="0 0 1214 866" version="1.1" xmlns="http://www.w3.org/2000/svg" xmlns:xlink="http://www.w3.org/1999/xlink">
    <!-- Generator: Sketch 51.3 (57544) - http://www.bohemiancoding.com/sketch -->
    <title>falling soup</title>
    <desc>Created with Sketch.</desc>
    <defs></defs>
    <g id="falling-soup" stroke="none" stroke-width="1" fill="none" fill-rule="evenodd">
        <polygon id="Page-1" fill="#F3E1D3" points="-2 866 1219 866 1219 0 -2 0"></polygon>
        <rect id="Rectangle" fill="#204056" fill-rule="nonzero" x="0" y="818" width="1213" height="53"></rect>
        <rect id="Rectangle-Copy" fill="#8B572A" fill-rule="nonzero" x="-50" y="245" width="352.132812" height="33" rx="16.5"></rect>
        <path d="M-99.0429588,532.074567 L470.991774,543.422708 C480.153951,543.605107 487.48607,551.084645 487.48607,560.248638 L487.48607,560.248638 C487.48607,569.180409 480.245439,576.421041 471.313667,576.421041 C471.206361,576.421041 471.099058,576.419973 470.991774,576.417837 L-99.0429588,565.069696 C-108.205135,564.887297 -115.537255,557.407759 -115.537255,548.243766 L-115.537255,548.243766 C-115.537255,539.311995 -108.296624,532.071364 -99.364852,532.071364 C-99.2575463,532.071364 -99.1502432,532.072432 -99.0429588,532.074567 Z" id="Rectangle-Copy" fill="#8B572A" fill-rule="nonzero" transform="translate(185.974408, 554.246202) rotate(-284.000000) translate(-185.974408, -554.246202) "></path>
        <g id="Group" transform="translate(185.000000, 98.000000)" fill-rule="nonzero">
            <path d="M110.494691,143.100826 C165.240614,143.100826 209.620953,98.7204867 209.620953,43.9745636 C209.620953,43.9745636 11.3684281,43.9745636 11.3684281,43.9745636 C11.3684281,98.7204867 55.7487675,143.100826 110.494691,143.100826 Z" id="Oval" fill="#FFFFFF" transform="translate(110.494691, 93.537695) rotate(31.000000) translate(-110.494691, -93.537695) "></path>
            <path d="M182.374978,75.2452864 C212.795039,83.2342589 219.049021,77.6425529 223.940291,82.2818489 C236.249282,93.9567428 219.898081,99.2789961 216.177791,101.026849" id="Path-2" fill="#F5A623" transform="translate(205.415679, 88.136068) rotate(-7.000000) translate(-205.415679, -88.136068) "></path>
        </g>
        <path d="M72.1279678,118 L132.872032,118 C135.081171,118 136.872032,119.790861 136.872032,122 C136.872032,122.041982 136.871371,122.083961 136.87005,122.125922 L133.122018,241.125922 C133.054017,243.284965 131.284115,245 129.124001,245 L75.8759993,245 C73.7158851,245 71.9459832,243.284965 71.8779818,241.125922 L68.1299503,122.125922 C68.0604056,119.917878 69.7940019,118.071527 72.002046,118.001983 C72.0440069,118.000661 72.085986,118 72.1279678,118 Z" id="Rectangle-2" fill="#FFFFFF" fill-rule="nonzero"></path>
        <polygon id="Rectangle-2" fill="#DAE8F8" fill-rule="nonzero" points="129.90005 186.673402 128 240 77 240 75.1280311 186.564988"></polygon>
        <path d="M315.000307,590 L514.010193,590 C517.323901,590 520.010193,592.686292 520.010193,596 C520.010193,596.158419 520.003919,596.316776 519.991385,596.474698 L500.943766,836.474698 C500.696162,839.594507 498.092193,842 494.962574,842 L334.047926,842 C330.918307,842 328.314338,839.594507 328.066734,836.474698 L309.019115,596.474698 C308.756947,593.171376 311.222288,590.280976 314.525609,590.018808 C314.683532,590.006274 314.841888,590 315.000307,590 Z" id="Rectangle-3" fill="#000000" fill-rule="nonzero"></path>
        <path d="M373.397656,709.414062 L373.397656,692.246094 L383.803906,692.246094 L383.675,694.765625 L376.573437,694.765625 L376.573437,699.195312 L383.323437,699.195312 L383.323437,701.714844 L376.573437,701.714844 L376.573437,706.882812 L383.932812,706.882812 L383.827344,709.414062 L373.397656,709.414062 Z M388.015625,709.414062 L388.015625,692.199219 L394.378906,692.199219 C395.246098,692.199219 395.998044,692.238281 396.634766,692.316406 C397.271488,692.394532 397.87695,692.537108 398.451172,692.744141 C399.025393,692.951173 399.490233,693.230467 399.845703,693.582031 C400.201174,693.933596 400.482421,694.392575 400.689453,694.958984 C400.896485,695.525393 401,696.195309 401,696.96875 C401,699.250011 399.964854,700.749996 397.894531,701.46875 C398.316408,701.945315 398.839841,702.828119 399.464844,704.117188 L402.019531,709.414062 L398.550781,709.414062 L396.546875,704.925781 C395.789059,703.316398 395.320313,702.363283 395.140625,702.066406 C395.007812,702.058594 394.56641,702.054688 393.816406,702.054688 L391.15625,702.03125 L391.15625,709.414062 L388.015625,709.414062 Z M394.660156,699.757812 C395.878912,699.757812 396.753904,699.541018 397.285156,699.107422 C397.816409,698.673826 398.082031,697.976567 398.082031,697.015625 C398.082031,696.171871 397.812503,695.550783 397.273438,695.152344 C396.734372,694.753904 395.910162,694.554688 394.800781,694.554688 L391.15625,694.554688 L391.15625,699.746094 C391.273438,699.746094 391.855464,699.748047 392.902344,699.751953 C393.949224,699.755859 394.535156,699.757812 394.660156,699.757812 Z M405.422656,709.414062 L405.422656,692.199219 L411.785937,692.199219 C412.653129,692.199219 413.405075,692.238281 414.041797,692.316406 C414.678519,692.394532 415.283982,692.537108 415.858203,692.744141 C416.432425,692.951173 416.897264,693.230467 417.252734,693.582031 C417.608205,693.933596 417.889452,694.392575 418.096484,694.958984 C418.303517,695.525393 418.407031,696.195309 418.407031,696.96875 C418.407031,699.250011 417.371885,700.749996 415.301562,701.46875 C415.72344,701.945315 416.246872,702.828119 416.871875,704.117188 L419.426562,709.414062 L415.957812,709.414062 L413.953906,704.925781 C413.19609,703.316398 412.727345,702.363283 412.547656,702.066406 C412.414843,702.058594 411.973441,702.054688 411.223437,702.054688 L408.563281,702.03125 L408.563281,709.414062 L405.422656,709.414062 Z M412.067187,699.757812 C413.285944,699.757812 414.160935,699.541018 414.692187,699.107422 C415.22344,698.673826 415.489062,697.976567 415.489062,697.015625 C415.489062,696.171871 415.219534,695.550783 414.680469,695.152344 C414.141404,694.753904 413.317193,694.554688 412.207812,694.554688 L408.563281,694.554688 L408.563281,699.746094 C408.680469,699.746094 409.262495,699.748047 410.309375,699.751953 C411.356255,699.755859 411.942187,699.757812 412.067187,699.757812 Z M426.907812,705.441406 C427.759379,706.527349 429.017179,707.070312 430.68125,707.070312 C432.345321,707.070312 433.601168,706.529302 434.448828,705.447266 C435.296489,704.365229 435.720312,702.835947 435.720312,700.859375 C435.720312,698.859365 435.296489,697.308599 434.448828,696.207031 C433.601168,695.105463 432.349227,694.554688 430.692969,694.554688 C429.028898,694.554688 427.769145,695.107416 426.913672,696.212891 C426.058199,697.318365 425.630469,698.867178 425.630469,700.859375 C425.630469,702.828135 426.056246,704.355463 426.907812,705.441406 Z M430.669531,709.660156 C428.083581,709.660156 426.042586,708.876961 424.546484,707.310547 C423.050383,705.744133 422.302344,703.582045 422.302344,700.824219 C422.302344,698.050767 423.052336,695.886727 424.552344,694.332031 C426.052351,692.777336 428.0953,692 430.68125,692 C433.2672,692 435.306243,692.779289 436.798437,694.337891 C438.290632,695.896492 439.036719,698.062486 439.036719,700.835938 C439.036719,703.578139 438.286726,705.734367 436.786719,707.304688 C435.286711,708.875008 433.247669,709.660156 430.669531,709.660156 Z M443.166406,709.414062 L443.166406,692.199219 L449.529687,692.199219 C450.396879,692.199219 451.148825,692.238281 451.785547,692.316406 C452.422269,692.394532 453.027732,692.537108 453.601953,692.744141 C454.176175,692.951173 454.641014,693.230467 454.996484,693.582031 C455.351955,693.933596 455.633202,694.392575 455.840234,694.958984 C456.047267,695.525393 456.150781,696.195309 456.150781,696.96875 C456.150781,699.250011 455.115635,700.749996 453.045312,701.46875 C453.46719,701.945315 453.990622,702.828119 454.615625,704.117188 L457.170312,709.414062 L453.701562,709.414062 L451.697656,704.925781 C450.93984,703.316398 450.471095,702.363283 450.291406,702.066406 C450.158593,702.058594 449.717191,702.054688 448.967187,702.054688 L446.307031,702.03125 L446.307031,709.414062 L443.166406,709.414062 Z M449.810937,699.757812 C451.029694,699.757812 451.904685,699.541018 452.435937,699.107422 C452.96719,698.673826 453.232812,697.976567 453.232812,697.015625 C453.232812,696.171871 452.963284,695.550783 452.424219,695.152344 C451.885154,694.753904 451.060943,694.554688 449.951562,694.554688 L446.307031,694.554688 L446.307031,699.746094 C446.424219,699.746094 447.006245,699.748047 448.053125,699.751953 C449.100005,699.755859 449.685937,699.757812 449.810937,699.757812 Z M350,740.414062 L350,723.246094 L353.175781,723.246094 L353.175781,730.265625 L360.933594,730.265625 L360.933594,723.246094 L364.109375,723.246094 L364.109375,740.414062 L360.933594,740.414062 L360.933594,732.773438 L353.175781,732.773438 L353.175781,740.414062 L350,740.414062 Z M367.125781,740.414062 L373.442188,723.234375 L376.899219,723.234375 L383.121875,740.414062 L379.864063,740.414062 L378.164844,735.5625 L372.153125,735.5625 L370.442188,740.414062 L367.125781,740.414062 Z M372.95,733.195312 L377.35625,733.195312 C375.949993,728.687477 375.227344,726.359376 375.188281,726.210938 L372.95,733.195312 Z M386.032812,740.414062 L386.032812,723.246094 L389.407812,723.246094 C390.017191,724.199224 391.255459,726.121079 393.122656,729.011719 C394.989853,731.902358 396.12656,733.660153 396.532812,734.285156 C396.650001,734.464845 396.85117,734.767576 397.136328,735.193359 C397.421486,735.619143 397.622656,735.921874 397.739844,736.101562 C397.685156,733.421862 397.657812,732.031251 397.657812,731.929688 L397.657812,723.246094 L400.552344,723.246094 L400.552344,740.414062 L397.130469,740.414062 L389.384375,728.34375 L388.821875,727.417969 C388.884375,729.480479 388.915625,730.929683 388.915625,731.765625 L388.915625,740.414062 L386.032812,740.414062 Z M408.63125,737.871094 L410.904687,737.871094 C412.865635,737.871094 414.357807,737.357427 415.38125,736.330078 C416.404693,735.302729 416.916406,733.804697 416.916406,731.835938 C416.916406,729.726552 416.389068,728.193364 415.334375,727.236328 C414.279682,726.279292 412.689854,725.800781 410.564844,725.800781 L408.63125,725.800781 L408.63125,737.871094 Z M405.455469,740.414062 L405.455469,723.246094 L410.424219,723.246094 C411.924226,723.246094 413.267963,723.417967 414.455469,723.761719 C415.642975,724.10547 416.664449,724.623043 417.519922,725.314453 C418.375395,726.005863 419.031638,726.896479 419.488672,727.986328 C419.945705,729.076177 420.174219,730.33593 420.174219,731.765625 C420.174219,734.539076 419.33829,736.673821 417.666406,738.169922 C415.994523,739.666023 413.67814,740.414062 410.717187,740.414062 L405.455469,740.414062 Z M424.385937,740.414062 L424.385937,723.246094 L427.561719,723.246094 L427.561719,737.882812 L434.745312,737.882812 L434.651562,740.414062 L424.385937,740.414062 Z M438.21875,740.414062 L438.21875,723.246094 L441.394531,723.246094 L441.394531,740.414062 L438.21875,740.414062 Z M446.391406,740.414062 L446.391406,723.246094 L449.766406,723.246094 C450.375784,724.199224 451.614053,726.121079 453.48125,729.011719 C455.348447,731.902358 456.485154,733.660153 456.891406,734.285156 C457.008594,734.464845 457.209764,734.767576 457.494922,735.193359 C457.78008,735.619143 457.981249,735.921874 458.098438,736.101562 C458.04375,733.421862 458.016406,732.031251 458.016406,731.929688 L458.016406,723.246094 L460.910938,723.246094 L460.910938,740.414062 L457.489063,740.414062 L449.742969,728.34375 L449.180469,727.417969 C449.242969,729.480479 449.274219,730.929683 449.274219,731.765625 L449.274219,740.414062 L446.391406,740.414062 Z M473.466406,740.660156 C470.849206,740.660156 468.804304,739.871102 467.331641,738.292969 C465.858977,736.714836 465.122656,734.554701 465.122656,731.8125 C465.122656,730.070304 465.466403,728.537116 466.153906,727.212891 C466.84141,725.888665 467.853118,724.855472 469.189062,724.113281 C470.525007,723.37109 472.103116,723 473.923437,723 C476.009385,723 477.79843,723.449214 479.290625,724.347656 L478.259375,726.714844 C476.837493,725.949215 475.411726,725.566406 473.982031,725.566406 C472.247648,725.566406 470.88438,726.128901 469.892187,727.253906 C468.899995,728.378912 468.403906,729.910147 468.403906,731.847656 C468.403906,733.769541 468.845308,735.289057 469.728125,736.40625 C470.610942,737.523443 471.903898,738.082031 473.607031,738.082031 C474.700787,738.082031 475.692964,737.910158 476.583594,737.566406 L476.583594,733.582031 L472.985937,733.582031 L473.009375,731.085938 L479.571875,731.085938 L479.571875,739.371094 C478.50937,739.808596 477.50352,740.132811 476.554297,740.34375 C475.605073,740.554689 474.575787,740.660156 473.466406,740.660156 Z" id="ERROR-HANDLING" fill="#FFFFFF"></path>
    </g>
</svg>